<svg xmlns="http://www.w3.org/2000/svg" aria-hidden="true" style="position:absolute;width:0;height:0;overflow:hidden"><defs><symbol id="icon-logo" viewBox="0 0 189 32"><path fill="#1e212c" d="M0 16.145C0 7.272 4.8 1.89 12.655 1.89c5.964 0 10.764 3.636 11.636 9.018.145.582-.291 1.018-.873 1.018h-3.782c-.436 0-.727-.291-.873-.727-.727-2.764-3.055-4.509-6.109-4.509-4.218 0-6.836 3.636-6.836 9.455S8.436 25.6 12.8 25.6c3.055 0 5.236-1.6 6.109-4.218.145-.436.436-.727.873-.727h3.782c.582 0 1.018.582.873 1.018-.873 5.236-5.527 8.727-11.636 8.727-8 0-12.8-5.527-12.8-14.255zM35.345 29.673h-4.218c-.436 0-.727-.291-.727-.727V3.782c0-.582.582-1.164 1.164-1.164h10.182c5.964 0 9.6 3.345 9.6 8.582 0 3.055-1.455 5.818-3.927 7.273-.582.291-.727 1.018-.436 1.455l4.509 8.582c.291.436-.145 1.018-.582 1.018h-4.8a.798.798 0 0 1-.727-.436l-4.218-8.727c-.145-.436-.582-.582-1.018-.582h-3.345c-.436 0-.727.291-.727.727v8.582c.145.291-.291.582-.727.582zm.873-14.837c0 .436.291.727.727.727h4.364c2.909 0 4.509-1.6 4.509-4.218s-1.745-4.218-4.509-4.218h-4.218c-.436 0-.727.291-.727.727v6.982h-.145zM74.909 29.673h-16a.994.994 0 0 1-1.018-1.018V3.637a.994.994 0 0 1 1.018-1.018h16a.994.994 0 0 1 1.018 1.018v2.764a.994.994 0 0 1-1.018 1.018H64.291c-.436 0-.727.291-.727.727v4.945c0 .436.291.727.727.727h9.891a.994.994 0 0 1 1.018 1.018v2.473a.994.994 0 0 1-1.018 1.018h-9.891c-.436 0-.727.291-.727.727v5.527c0 .436.291.727.727.727h10.618a.994.994 0 0 1 1.018 1.018v2.764c0 .145-.436.582-1.018.582zM97.454 23.127h-8.291c-.436 0-.727.291-.873.582l-1.6 5.382c-.145.436-.436.582-.873.582h-3.782c-.582 0-1.018-.582-.873-1.164L89.889 3.2c.145-.291.436-.582.873-.582h5.382c.436 0 .727.291.873.582l8.727 25.309c.145.582-.291 1.164-.873 1.164h-4.218c-.436 0-.727-.291-.873-.582l-1.6-5.382c0-.291-.436-.582-.727-.582zm-7.127-4.218h5.964c.291 0 .436-.291.436-.582l-3.2-10.182h-.291l-3.2 10.182c-.145.291 0 .582.291.582zM114.909 28.655V8c0-.436-.291-.727-.727-.727h-6.4c-.582 0-1.164-.436-1.164-1.164V3.636c0-.582.436-1.164 1.164-1.164h19.782c.582 0 1.164.436 1.164 1.164v2.473c0 .582-.436 1.164-1.164 1.164h-6.4c-.436 0-.727.291-.727.727v20.8a.994.994 0 0 1-1.018 1.018h-3.636c-.436-.146-.873-.582-.873-1.164zM150.982 29.673h-16a.994.994 0 0 1-1.018-1.018V3.637a.994.994 0 0 1 1.018-1.018h16A.994.994 0 0 1 152 3.637v2.764a.994.994 0 0 1-1.018 1.018h-10.618c-.436 0-.727.291-.727.727v4.945c0 .436.291.727.727.727h9.891a.994.994 0 0 1 1.018 1.018v2.473a.994.994 0 0 1-1.018 1.018h-9.891c-.436 0-.727.291-.727.727v5.527c0 .436.291.727.727.727h10.618A.994.994 0 0 1 152 26.326v2.764c0 .145-.436.582-1.018.582z" style="fill:var(--color1, #1e212c)"/><path fill="#ff3f3a" d="m171.2 14.109-9.018-11.782c-.582-.582-1.309-.873-2.036-.873s-1.455.291-2.036.873a3.098 3.098 0 0 0 0 4.073l7.127 9.6-7.127 9.6a3.098 3.098 0 0 0 0 4.073c.582.582 1.309.873 2.036.873s1.455-.291 2.036-.873l9.018-11.782c1.018-.873 1.018-2.618 0-3.782zM175.044 14.109l9.018-11.782c.582-.582 1.309-.873 2.036-.873s1.455.291 2.036.873a3.098 3.098 0 0 1 0 4.073l-7.127 9.6 7.127 9.6a3.098 3.098 0 0 1 0 4.073c-.582.582-1.309.873-2.036.873s-1.455-.291-2.036-.873l-9.018-11.782c-1.018-.873-1.018-2.618 0-3.782z" style="fill:var(--color2, #ff3f3a)"/></symbol><symbol id="icon-Person" viewBox="0 0 32 32"><path d="M16 3.038a5.184 5.184 0 1 0 0 10.37 5.184 5.184 0 1 0 0-10.37zM7.852 8.223a8.148 8.148 0 1 1 16.296 0 8.148 8.148 0 0 1-16.296 0zM7.266 20.815c-1.027 0-1.83.5-2.156 1.219-.451.994-.859 2.178-.956 3.302-.043.502.166.872.455 1.051 1.525.947 5.058 2.577 11.392 2.577s9.867-1.63 11.392-2.577c.288-.179.498-.549.455-1.051-.096-1.123-.505-2.307-.956-3.302-.326-.719-1.129-1.219-2.156-1.219H7.266zm-4.855-.005c.901-1.986 2.912-2.958 4.854-2.958h17.47c1.942 0 3.954.972 4.854 2.958.517 1.141 1.072 2.674 1.21 4.272.125 1.455-.48 2.974-1.843 3.821-2.005 1.246-6.082 3.023-12.955 3.023s-10.95-1.777-12.955-3.023c-1.363-.847-1.968-2.366-1.843-3.821.137-1.598.692-3.131 1.21-4.272z"/></symbol></defs></svg>